<?xml version="1.0" standalone="no"?>
<!DOCTYPE svg PUBLIC "-//W3C//DTD SVG 20010904//EN"
 "http://www.w3.org/TR/2001/REC-SVG-20010904/DTD/svg10.dtd">
<svg version="1.0" xmlns="http://www.w3.org/2000/svg"
 width="512.000000pt" height="512.000000pt" viewBox="0 0 512.000000 512.000000"
 preserveAspectRatio="xMidYMid meet">

<g transform="translate(0.000000,512.000000) scale(0.100000,-0.100000)"
fill="#000000" stroke="none">
<path d="M1945 5107 c-130 -44 -216 -149 -244 -302 -23 -125 -4 -244 60 -374
75 -151 203 -249 340 -259 91 -6 154 16 224 80 188 172 173 533 -30 741 -99
102 -244 149 -350 114z m137 -147 c45 -13 128 -86 161 -143 66 -114 83 -275
39 -372 -39 -85 -90 -125 -159 -125 -192 1 -344 321 -253 528 46 103 114 139
212 112z"/>
<path d="M3003 5106 c-114 -37 -213 -128 -274 -250 -110 -224 -84 -468 66
-604 101 -93 226 -107 354 -42 189 95 314 365 272 586 -37 192 -154 311 -316
320 -34 2 -78 -2 -102 -10z m183 -171 c131 -100 119 -374 -23 -526 -54 -59
-110 -88 -166 -89 -175 -1 -243 284 -120 497 31 53 115 130 157 143 51 15 112
5 152 -25z"/>
<path d="M1283 4334 c-59 -22 -127 -86 -159 -151 -21 -43 -29 -75 -32 -138 -5
-102 9 -169 56 -265 79 -160 237 -273 386 -274 128 -1 231 70 277 193 30 82
24 239 -14 331 -95 228 -332 368 -514 304z m194 -159 c209 -104 282 -438 112
-509 -43 -17 -49 -17 -100 -2 -140 40 -248 193 -249 351 0 156 103 226 237
160z"/>
<path d="M3623 4330 c-193 -68 -336 -278 -335 -490 1 -149 57 -252 169 -307
128 -62 291 -19 417 110 68 69 128 178 147 266 18 87 8 208 -25 274 -68 140
-222 201 -373 147z m184 -150 c105 -63 96 -269 -18 -410 -43 -53 -108 -95
-169 -110 -121 -29 -204 76 -179 228 33 204 240 369 366 292z"/>
<path d="M2430 4154 c-88 -19 -173 -63 -242 -124 -51 -46 -58 -56 -58 -89 0
-45 27 -74 69 -74 20 0 44 13 78 42 89 80 200 117 313 108 187 -16 311 -123
405 -352 80 -192 90 -210 162 -277 192 -178 213 -212 221 -344 8 -146 -47
-244 -169 -299 -56 -25 -70 -27 -148 -23 -73 4 -99 11 -178 46 -146 65 -193
76 -323 76 -130 0 -177 -11 -323 -76 -79 -35 -105 -42 -178 -46 -78 -4 -92 -2
-148 23 -122 55 -177 153 -169 299 8 132 29 165 220 343 69 64 99 111 138 223
29 81 23 116 -22 135 -58 24 -86 1 -129 -108 -30 -78 -38 -88 -154 -202 -84
-82 -131 -137 -149 -172 -80 -161 -74 -369 14 -497 88 -129 219 -196 380 -196
98 0 145 12 279 70 180 78 302 77 491 -4 137 -58 176 -67 273 -67 121 0 222
38 304 114 99 91 143 193 143 330 0 178 -40 261 -205 422 -118 115 -124 123
-155 205 -74 189 -150 313 -242 395 -130 114 -317 159 -498 119z"/>
<path d="M248 3587 c-93 -27 -173 -95 -217 -187 -48 -100 -42 -137 107 -790
143 -625 168 -714 241 -866 52 -109 291 -498 323 -526 27 -24 59 -23 92 3 47
37 38 63 -100 281 -146 233 -202 341 -249 481 -18 56 -93 365 -166 688 -100
445 -130 594 -125 621 14 77 82 142 162 154 36 5 54 2 97 -20 29 -14 61 -40
74 -58 13 -20 88 -271 188 -628 107 -380 176 -612 193 -642 23 -41 313 -392
426 -515 48 -53 92 -59 125 -17 32 41 26 68 -32 136 -29 35 -125 149 -213 253
-88 105 -168 201 -177 215 -24 35 -22 116 3 158 22 35 88 72 130 72 63 -1 98
-32 326 -294 206 -238 231 -263 302 -306 110 -65 188 -127 268 -213 133 -143
184 -260 192 -435 6 -139 -10 -212 -80 -367 -74 -165 -88 -234 -88 -452 l0
-183 -424 0 -424 0 -5 218 c-5 248 -18 318 -86 457 -59 120 -144 248 -174 263
-34 16 -74 0 -96 -39 -17 -31 -11 -46 83 -197 107 -171 126 -258 126 -584 l0
-227 26 -20 c26 -21 36 -21 550 -21 508 0 525 1 544 20 28 28 29 40 33 300 3
261 -1 239 90 445 20 44 44 107 53 140 22 79 30 287 14 368 -43 224 -214 455
-449 607 -133 85 -153 105 -393 382 -180 207 -203 229 -257 255 l-60 28 -3
375 -3 375 -30 53 c-32 59 -66 91 -129 125 -32 17 -58 22 -121 22 -97 0 -156
-26 -216 -94 -22 -24 -40 -42 -42 -40 -1 2 -15 30 -31 62 -65 131 -235 204
-378 164z m731 -255 c70 -38 71 -45 71 -439 l0 -353 -37 -15 c-20 -9 -51 -27
-69 -40 l-32 -25 -11 33 c-6 17 -35 121 -66 230 l-55 197 0 168 c0 150 2 170
20 200 36 58 116 78 179 44z"/>
<path d="M4707 3590 c-92 -24 -173 -86 -213 -167 -16 -32 -30 -60 -31 -62 -2
-2 -20 16 -42 40 -60 68 -119 94 -216 94 -63 0 -89 -5 -121 -22 -63 -34 -97
-66 -129 -125 l-30 -53 -3 -375 -3 -375 -60 -28 c-54 -26 -77 -48 -257 -255
-240 -277 -260 -297 -393 -382 -235 -152 -406 -383 -449 -607 -16 -81 -8 -289
14 -368 9 -33 33 -96 53 -140 90 -204 86 -185 90 -445 4 -261 5 -272 33 -300
19 -19 36 -20 544 -20 501 0 525 1 547 19 24 19 24 21 30 283 6 290 14 340 73
458 18 36 148 249 291 474 257 409 331 541 380 689 34 104 95 363 95 408 0 44
-28 72 -71 72 -52 0 -65 -25 -105 -198 -42 -185 -79 -295 -139 -416 -24 -48
-159 -271 -301 -495 -141 -225 -272 -440 -290 -479 -63 -131 -76 -205 -81
-447 l-5 -218 -424 0 -424 0 0 183 c0 219 -14 290 -89 453 -69 150 -84 221
-78 364 3 90 10 129 29 182 67 178 216 342 428 467 73 44 96 67 304 307 228
262 263 293 326 294 42 0 108 -37 130 -72 25 -42 27 -123 3 -158 -9 -14 -89
-110 -177 -215 -88 -104 -184 -218 -213 -253 -58 -68 -64 -95 -32 -136 33 -42
77 -36 125 17 113 123 403 474 426 515 17 30 86 262 193 642 100 357 175 608
188 628 13 18 45 44 74 58 43 22 61 25 97 20 79 -12 148 -77 162 -154 5 -27
-12 -118 -65 -351 -39 -174 -71 -322 -71 -329 0 -24 48 -62 78 -62 55 0 65 24
138 340 80 348 86 419 43 510 -52 111 -161 187 -279 195 -36 2 -82 0 -103 -5z
m-442 -254 c66 -28 75 -59 75 -248 l0 -168 -56 -197 c-30 -109 -60 -213 -65
-230 l-11 -33 -32 25 c-18 13 -49 31 -69 40 l-37 15 0 353 c0 322 2 355 18
386 34 63 107 86 177 57z"/>
</g>
</svg>
