<?xml version="1.0" standalone="no"?>
<!DOCTYPE svg PUBLIC "-//W3C//DTD SVG 20010904//EN"
 "http://www.w3.org/TR/2001/REC-SVG-20010904/DTD/svg10.dtd">
<svg version="1.0" xmlns="http://www.w3.org/2000/svg"
 width="512.000000pt" height="512.000000pt" viewBox="0 0 512.000000 512.000000"
 preserveAspectRatio="xMidYMid meet">

<g transform="translate(0.000000,512.000000) scale(0.100000,-0.100000)"
fill="#000000" stroke="none">
<path d="M1011 5093 l-63 -26 6 -71 c3 -39 6 -172 7 -295 l2 -224 -52 -43
c-115 -95 -203 -235 -237 -376 l-16 -66 -205 -138 -205 -139 5 -150 c3 -120 9
-162 26 -210 43 -120 141 -236 250 -293 97 -53 153 -62 367 -62 l191 0 6 -212
c3 -134 11 -244 22 -298 9 -47 74 -261 146 -476 l129 -390 -2 -523 -3 -523
-51 -18 c-80 -28 -144 -69 -209 -135 -98 -98 -150 -219 -156 -357 l-3 -63 445
-3 444 -2 12 59 c28 149 148 303 292 374 40 20 81 37 91 37 15 0 18 18 24 160
5 118 13 185 31 255 96 380 425 654 818 682 l87 6 0 -150 0 -150 -78 -6 c-146
-11 -282 -77 -386 -188 -74 -77 -115 -147 -147 -244 -20 -64 -23 -93 -27 -357
l-4 -288 -112 0 c-90 0 -119 -4 -156 -21 -67 -30 -115 -83 -135 -146 l-6 -23
930 0 931 0 0 428 c0 235 -5 477 -10 537 -48 511 -239 985 -557 1380 -44 55
-276 311 -516 568 l-435 468 -5 217 c-3 178 -8 231 -25 294 -50 184 -135 332
-267 463 -124 125 -258 200 -441 248 l-82 22 -241 231 c-132 127 -256 239
-275 248 -46 22 -80 20 -155 -11z"/>
<path d="M4580 1273 c0 -160 -11 -238 -44 -308 -32 -70 -112 -155 -175 -186
l-50 -24 -1 -369 0 -368 38 6 c20 4 79 27 130 52 165 80 296 229 358 405 l29
84 3 418 3 417 -146 0 -145 0 0 -127z"/>
</g>
</svg>
