<?xml version="1.0" standalone="no"?>
<!DOCTYPE svg PUBLIC "-//W3C//DTD SVG 20010904//EN"
 "http://www.w3.org/TR/2001/REC-SVG-20010904/DTD/svg10.dtd">
<svg version="1.0" xmlns="http://www.w3.org/2000/svg"
 width="1104.000000pt" height="672.000000pt" viewBox="0 0 1104.000000 672.000000"
 preserveAspectRatio="xMidYMid meet">

<g transform="translate(0.000000,672.000000) scale(0.100000,-0.100000)"
fill="#000000" stroke="none">
<path d="M3755 6642 c-155 -54 -319 -246 -416 -487 -81 -204 -112 -368 -112
-595 0 -228 31 -394 110 -593 l35 -88 -31 -57 c-290 -518 -395 -1072 -301
-1590 17 -95 19 -122 9 -170 -10 -52 -5 -92 45 -419 31 -199 56 -372 56 -384
0 -12 -16 -61 -35 -110 -86 -219 -144 -471 -165 -719 -7 -74 -18 -160 -26
-190 -8 -30 -14 -91 -14 -137 l0 -82 -131 -3 c-129 -3 -132 -4 -151 -29 -18
-24 -19 -32 -9 -100 7 -45 25 -101 45 -141 l34 -68 -233 0 -232 0 1 73 c1 58
-4 81 -24 120 -51 101 -187 190 -335 222 -90 19 -270 19 -360 0 -38 -8 -107
-33 -151 -55 -147 -72 -226 -189 -210 -311 l7 -49 -263 0 c-254 0 -265 -1
-313 -24 -99 -46 -156 -140 -163 -271 -4 -76 6 -125 42 -205 5 -13 -18 -15
-187 -12 -184 3 -195 2 -220 -18 -31 -24 -34 -46 -11 -78 l15 -22 5463 0
c5280 0 5463 1 5479 18 32 36 14 85 -36 97 -12 3 -104 5 -205 3 -100 -2 -182
-3 -182 -3 0 0 11 27 25 60 67 164 2 365 -139 431 -50 23 -57 24 -343 24
l-293 0 10 26 c6 14 10 36 10 49 0 19 7 26 28 31 84 19 113 29 174 61 86 45
169 131 211 220 30 64 32 75 32 178 0 103 -2 114 -32 178 -38 81 -131 178
-210 220 -28 15 -85 36 -125 46 l-73 19 -6 59 c-3 36 -15 75 -28 96 -42 68
-36 67 -553 67 -444 0 -464 -1 -496 -20 -18 -11 -41 -34 -52 -52 -20 -32 -20
-48 -18 -606 l3 -572 -177 0 -177 0 24 43 c36 63 54 120 61 191 6 56 4 66 -15
85 -19 19 -32 21 -151 21 l-130 0 0 88 c0 49 -6 111 -14 138 -8 27 -17 92 -21
144 -18 262 -71 505 -162 742 l-46 117 59 386 c52 346 57 390 46 431 -10 38
-9 62 7 154 94 517 6 1023 -265 1538 l-64 123 34 87 c67 168 102 332 112 527
28 554 -277 1136 -610 1162 -190 16 -459 -133 -766 -424 l-94 -89 -95 39
c-113 47 -288 93 -403 106 -108 12 -559 12 -666 0 -112 -13 -285 -59 -404
-107 l-97 -39 -53 54 c-149 153 -368 318 -513 388 -154 75 -269 92 -370 57z
m206 -118 c159 -47 348 -178 581 -401 64 -62 124 -113 132 -113 8 0 51 16 95
35 206 91 373 129 566 130 77 0 154 -1 170 -3 17 -1 86 0 155 4 194 9 377 -28
600 -122 58 -24 112 -44 119 -44 8 0 64 49 126 109 277 268 526 421 684 421
195 -1 417 -316 491 -697 56 -287 27 -581 -82 -842 -56 -133 -56 -131 -14
-200 71 -116 177 -351 226 -499 82 -250 113 -436 113 -692 0 -140 -24 -394
-38 -408 -2 -2 -14 2 -27 10 -18 10 -190 14 -885 16 l-863 3 0 46 c0 70 -19
120 -68 174 -108 120 -367 187 -623 160 -128 -14 -203 -32 -285 -70 -122 -57
-194 -152 -194 -258 l0 -53 -837 0 c-461 0 -854 -4 -873 -9 -19 -5 -42 -10
-50 -12 -28 -8 -42 117 -44 396 -1 231 2 273 21 375 55 285 153 546 299 801
24 42 44 83 44 92 0 8 -16 52 -35 97 -123 288 -153 588 -89 896 62 303 236
585 405 658 45 20 113 20 180 0z m3856 -3425 c44 -16 73 -49 73 -82 0 -16 -32
-237 -70 -490 -39 -254 -93 -613 -121 -797 -143 -942 -145 -949 -165 -977 -12
-15 -40 -38 -64 -50 l-43 -23 -1896 0 -1896 0 -50 24 c-28 13 -59 36 -69 51
-21 32 -9 -39 -186 1125 -193 1268 -176 1144 -156 1175 38 58 -112 54 2348 55
1582 0 2275 -3 2295 -11z m-4597 -1300 c16 -107 32 -206 34 -221 5 -24 1 -28
-40 -44 -25 -9 -65 -30 -91 -46 -25 -16 -47 -27 -50 -25 -9 10 31 231 68 376
21 85 39 156 39 159 0 3 3 3 6 0 3 -3 18 -93 34 -199z m4695 26 c34 -132 71
-352 61 -362 -2 -3 -18 4 -35 16 -16 12 -56 34 -89 49 l-59 27 28 180 c15 99
31 200 34 225 7 42 8 43 17 20 5 -14 25 -84 43 -155z m1809 -31 c3 -9 6 -248
6 -533 0 -389 -3 -520 -12 -529 -9 -9 -120 -12 -439 -12 -235 0 -434 3 -443 6
-14 5 -16 62 -16 538 0 293 3 536 7 539 3 4 205 7 449 7 394 0 443 -2 448 -16z
m265 -253 c62 -32 133 -101 161 -158 29 -58 38 -163 20 -229 -28 -100 -132
-198 -247 -234 -76 -23 -73 -23 -73 -10 0 6 6 10 13 10 30 0 136 61 174 101
64 67 88 128 88 224 0 60 -6 91 -22 126 -39 87 -130 166 -218 190 -19 6 -35
14 -35 19 0 12 86 -13 139 -39z m-67 -129 c48 -31 88 -109 88 -171 0 -82 -55
-161 -133 -190 l-27 -11 0 205 c0 229 -5 218 72 167z m-6642 13 c0 -3 14 -94
30 -202 17 -108 30 -198 30 -200 0 -1 -70 -3 -155 -3 l-155 0 0 81 c0 108 15
151 71 214 51 55 179 134 179 110z m4562 -27 c132 -70 177 -143 178 -285 l0
-93 -156 0 -156 0 6 28 c7 34 56 359 56 372 0 15 7 13 72 -22z m-5974 -424
c129 -33 233 -112 247 -188 13 -67 16 -66 -187 -66 l-183 0 0 85 c0 74 -3 87
-23 107 -18 18 -26 20 -40 12 -32 -20 -43 -56 -40 -132 l3 -72 -185 2 -185 3
-3 33 c-5 48 37 113 96 151 129 83 330 109 500 65z m1497 -121 c10 -70 25
-123 42 -150 l15 -23 -261 0 c-237 0 -265 2 -299 19 -20 10 -44 27 -54 37 -24
28 -57 94 -64 132 l-6 32 310 0 311 0 6 -47z m4943 10 c-15 -57 -54 -119 -95
-150 l-36 -28 -274 -3 -273 -3 20 33 c11 19 25 68 31 111 l11 77 313 0 313 0
-10 -37z m2147 -345 c34 -34 45 -55 54 -99 20 -94 -15 -194 -80 -233 -25 -15
-458 -16 -4907 -16 l-4880 0 -32 26 c-48 41 -70 93 -70 166 0 75 24 132 69
171 l33 27 4885 0 4886 0 42 -42z"/>
<path d="M4580 4431 c-121 -25 -220 -143 -220 -261 0 -199 212 -332 388 -244
90 45 152 143 152 239 0 162 -164 298 -320 266z m169 -115 c38 -46 -25 -111
-69 -71 -22 20 -26 55 -8 73 17 17 63 15 77 -2z"/>
<path d="M6367 4429 c-99 -24 -172 -91 -202 -185 -41 -132 34 -284 163 -330
20 -7 64 -13 97 -13 98 -1 180 48 233 138 23 40 27 57 27 126 0 94 -20 140
-85 199 -68 61 -153 85 -233 65z m169 -107 c24 -15 26 -50 5 -71 -28 -28 -57
-26 -77 4 -23 36 -6 75 33 75 16 0 33 -4 39 -8z"/>
<path d="M5448 1856 c-164 -44 -222 -225 -106 -333 71 -67 209 -87 300 -43 50
23 103 75 119 117 13 35 11 98 -4 136 -21 48 -88 104 -148 121 -62 19 -97 19
-161 2z"/>
</g>
</svg>
